<svg xmlns="http://www.w3.org/2000/svg" viewBox="0 0 259.04 62.76"><defs><style>.park-a{fill:#233c7e;}.park-b{fill:#ed1c24;}</style></defs><title>lotparking logo</title><path class="park-a" d="M86.8,43.56a13.38,13.38,0,0,1-9.06-3.48v-18A13.38,13.38,0,0,1,86.8,18.6c7.22,0,13.09,5.6,13.09,12.48S94,43.56,86.8,43.56h0Zm0-28.8a17.63,17.63,0,0,0-9.06,2.48V15.72h-4V61.8h4V44.92A17.63,17.63,0,0,0,86.8,47.4c9.44,0,17.11-7.32,17.11-16.32S96.24,14.76,86.8,14.76h0Z"/><path class="park-a" d="M255,40.08a13.38,13.38,0,0,1-9.06,3.48c-7.22,0-13.09-5.6-13.09-12.48s5.87-12.48,13.09-12.48A13.38,13.38,0,0,1,255,22.08v18h0Zm0-24.36v1.52a17.63,17.63,0,0,0-9.06-2.48c-9.44,0-17.11,7.32-17.11,16.32s7.68,16.32,17.11,16.32A17.63,17.63,0,0,0,255,44.92V55.44a13.38,13.38,0,0,1-9.06,3.48v3.84A17.63,17.63,0,0,0,255,60.28a17,17,0,0,0,4-3.34V15.72h-4Z"/><path class="park-b" d="M57.5,0.09H53.6V31.28A16.58,16.58,0,0,0,70.16,47.84v-3.9A12.68,12.68,0,0,1,57.5,31.28V19.58H70.16v-3.9H57.5V0.09Z"/><path class="park-b" d="M3.9,31.28V0.09H0V31.28A16.59,16.59,0,0,0,16.57,47.84v-3.9A12.68,12.68,0,0,1,3.9,31.28"/><path class="park-b" d="M33.13,14.71A16.57,16.57,0,1,0,49.7,31.28,16.59,16.59,0,0,0,33.13,14.71m0,29.24A12.67,12.67,0,1,1,45.8,31.28,12.68,12.68,0,0,1,33.13,43.95"/><rect class="park-a" x="191.82" y="15.67" width="4.22" height="31.96"/><rect class="park-a" x="166.42" width="4.22" height="47.08"/><path class="park-a" d="M218.88,16.94A15.12,15.12,0,0,0,213,15.79c-3.17,0-12.61,0-12.71,0V47.44h4.16l0-27.89H213a9.32,9.32,0,0,1,4.47,1c3.71,2.27,4.22,6.95,4.22,9.31V47.44h4.16V29.86c0-7.82-3.54-11.34-6.94-12.92"/><path class="park-a" d="M150.21,16.84a14.9,14.9,0,0,1,6-1.13h6.58v3.72l-6.73,0a9.06,9.06,0,0,0-4.44,1c-3.7,2.27-4.21,6.93-4.21,9.29V47.27h-4.15V29.73c0-7.8,3.53-11.31,6.92-12.89"/><path class="park-a" d="M135.77,14.71v5.91a16.57,16.57,0,1,0,0,21.31v5.49h3.9V14.71h-3.9ZM123.1,43.95a12.67,12.67,0,1,1,12.67-12.67A12.68,12.68,0,0,1,123.1,43.95"/><path class="park-a" d="M196.77,9.85a2.67,2.67,0,1,1-2.67-2.67,2.67,2.67,0,0,1,2.67,2.67"/><polygon class="park-a" points="176.78 30.53 176.76 30.53 188.42 16.04 182.96 16.04 171.3 30.53 171.25 30.53 184.18 47.63 189.72 47.63 176.78 30.53"/></svg>