<svg xmlns="http://www.w3.org/2000/svg" viewBox="0 0 138.94 100"><defs><style>.a{fill:#154263;}</style></defs><title>001</title><path class="a" d="M137.24,96.59h-6.47V92.85h1.95a1.63,1.63,0,0,0,1.63-1.63V84.07a1.63,1.63,0,0,0-1.63-1.63h-1.95V69.78a1.63,1.63,0,0,0-1.63-1.63h-1.95V64.26h1.95a1.63,1.63,0,0,0,1.63-1.63V55.49a1.63,1.63,0,0,0-1.63-1.63h-1.95V50h1.95a1.63,1.63,0,0,0,1.63-1.63V41.2a1.63,1.63,0,0,0-1.63-1.63H118.26v0H115v0H104.13a1.63,1.63,0,0,0-1.63,1.63v5.52h-1.95a1.63,1.63,0,0,0-1.63,1.63v7.15a1.63,1.63,0,0,0,1.63,1.63h1.95V61h-1.95a1.63,1.63,0,0,0-1.63,1.63v7.15a1.63,1.63,0,0,0,1.63,1.63h1.95V84.07a1.63,1.63,0,0,0,1.63,1.63h1.95v3.89h-1.95a1.63,1.63,0,0,0-1.63,1.63v5.38H98.61V91.22A1.63,1.63,0,0,0,97,89.59H95V85.7H97a1.63,1.63,0,0,0,1.63-1.63V76.93A1.63,1.63,0,0,0,97,75.3H95V62.63A1.63,1.63,0,0,0,93.41,61H83.29L97.45,46.85a8.76,8.76,0,0,0,0-12.38L65.53,2.56a8.77,8.77,0,0,0-12.38,0L2.56,53.15a8.77,8.77,0,0,0,0,12.38L33.62,96.59H29A1.7,1.7,0,0,0,29,100H137.24A1.7,1.7,0,0,0,137.24,96.59Zm-41.89-18v3.89H73.6V78.55H95.35ZM91.78,85.7v3.89H70V85.7H91.78ZM70,75.3v-1l2.86-2.86H91.78V75.3H70Zm21.76-11v3.89H76.15L80,64.26H91.78ZM40.67,96.59A5.32,5.32,0,0,1,36.88,95L10.11,68.26,59,19.39A1.7,1.7,0,0,0,59,17a1.75,1.75,0,0,0-2.41,0L7.7,65.85,5,63.12a5.37,5.37,0,0,1,0-7.56L55.56,5a5.37,5.37,0,0,1,7.56,0L74.76,16.6,25.89,65.47a1.71,1.71,0,0,0,0,2.41,1.74,1.74,0,0,0,2.41,0L77.17,19,95,36.88a5.35,5.35,0,0,1,0,7.56L44.44,95A5.31,5.31,0,0,1,40.67,96.59Zm29.67,0H47.7L66.86,77.44a1.62,1.62,0,0,0,1.54,1.12h1.95v3.89H68.4a1.63,1.63,0,0,0-1.63,1.63v7.15a1.63,1.63,0,0,0,1.63,1.63h1.95v3.75Zm25,0H73.6V92.85H95.35v3.75ZM131.08,85.7v3.89H109.33V85.7h21.76Zm-3.57-14.29V75.3H105.76V71.41h21.76Zm0-14.29V61H105.76V57.12h21.76ZM105.76,42.82h21.76v3.89H105.76V42.82Zm-3.57,11V50h21.76v3.89H102.18Zm0,14.29V64.26h21.76v3.89H102.18Zm3.57,14.29V78.55h21.76v3.89H105.76Zm21.76,14.15H105.76V92.85h21.76v3.75Z"/><path class="a" d="M51.79,61.73a1.94,1.94,0,0,0-3.31-1.37L32,76.89a1.94,1.94,0,0,0,0,2.74,2,2,0,0,0,2.74,0L51.23,63.1A1.92,1.92,0,0,0,51.79,61.73Z"/><path class="a" d="M46,75.51h0a1.94,1.94,0,0,0-1.37.54L37.9,82.83a1.94,1.94,0,0,0,0,2.74,2,2,0,0,0,2.74,0l6.78-6.78A1.91,1.91,0,0,0,46,75.51Z"/><path class="a" d="M52.29,69.25a1.92,1.92,0,0,0-1.37.57L50,70.71a1.94,1.94,0,0,0,0,2.74,2,2,0,0,0,2.74,0l0.89-.89A1.94,1.94,0,0,0,52.29,69.25Z"/><path class="a" d="M79.46,32.13a1.7,1.7,0,0,0-1.2-.47h0a1.7,1.7,0,0,0-1.2.47L68.15,41a1.7,1.7,0,0,0,0,2.41l5.94,5.94a1.74,1.74,0,0,0,2.41,0l8.91-8.91a1.7,1.7,0,0,0,0-2.41ZM75.29,45.77l-3.53-3.53,6.5-6.5,3.53,3.53Z"/><path class="a" d="M64,14.66l0.89-.89A1.94,1.94,0,0,0,62.19,11l-0.89.89a1.94,1.94,0,0,0,0,2.74A2,2,0,0,0,64,14.66Z"/><path class="a" d="M22.2,69.64a1.92,1.92,0,0,0-1.37.57l-0.89.89a1.94,1.94,0,0,0,0,2.74,2,2,0,0,0,2.74,0l0.89-.89A1.94,1.94,0,0,0,22.2,69.64Z"/></svg>