<svg xmlns="http://www.w3.org/2000/svg" viewBox="0 0 84.43 84.33"><title>Icon works-01</title><path d="M19.52,62.92a0.88,0.88,0,0,0,.9-0.8v-4.3a1.7,1.7,0,0,1,.9,1.6,0.8,0.8,0,0,0,1.6,0,3.54,3.54,0,0,0-2.6-3.4v-6.6a1.7,1.7,0,0,1,.9,1.6,0.8,0.8,0,0,0,1.6,0,3.54,3.54,0,0,0-2.6-3.4V41a1.7,1.7,0,0,1,.9,1.6,0.8,0.8,0,0,0,1.6,0,3.54,3.54,0,0,0-2.6-3.4v-6.6a1.7,1.7,0,0,1,.9,1.6,0.8,0.8,0,1,0,1.6,0,3.54,3.54,0,0,0-2.6-3.4v-6.6a1.7,1.7,0,0,1,.9,1.6,0.8,0.8,0,0,0,1.6,0,3.54,3.54,0,0,0-2.6-3.4V18H58v9.2a0.79,0.79,0,0,0,.78.8h0a0.86,0.86,0,0,0,.8-0.8v-10a0.79,0.79,0,0,0-.78-0.8H19.52a0.79,0.79,0,0,0-.8.78s0,0,0,0v5.6a3.46,3.46,0,0,0,0,6.8v1.5a3.46,3.46,0,0,0,0,6.8v1.5a3.46,3.46,0,0,0,0,6.8v1.5a3.46,3.46,0,0,0,0,6.8V56a3.44,3.44,0,0,0-2.8,3.4,3.5,3.5,0,0,0,3.5,3.5h0.1Zm-0.7-1.8a1.63,1.63,0,0,1-1.2-1.7,1.84,1.84,0,0,1,1.2-1.7v3.4Zm0-8.3a1.63,1.63,0,0,1-1.2-1.7,1.84,1.84,0,0,1,1.2-1.7v3.4Zm0-8.3a1.71,1.71,0,0,1-1.2-1.7,1.84,1.84,0,0,1,1.2-1.7v3.4Zm0-8.3a1.71,1.71,0,0,1-1.2-1.7,1.84,1.84,0,0,1,1.2-1.7v3.4Zm0-8.3a1.79,1.79,0,0,1-1.2-1.7,1.84,1.84,0,0,1,1.2-1.7v3.4Zm9.7,2.3a0.85,0.85,0,0,1,1.2-1.2l0.5,0.4,1.6-1.6,0.07-.07A0.85,0.85,0,0,1,33,29l-2.2,2.3a1.42,1.42,0,0,1-.6.2,0.73,0.73,0,0,1-.6-0.2Zm6.9,3.2v-7.6a0.79,0.79,0,0,0-.78-0.8H27a0.79,0.79,0,0,0-.8.78s0,0,0,0v7.6a0.79,0.79,0,0,0,.78.8h7.62a0.79,0.79,0,0,0,.8-0.78S35.42,33.43,35.42,33.42Zm-1.7-.8h-6v-6h6v6Zm18.2-4.88a0.79,0.79,0,0,1-.8.78H38.62a0.8,0.8,0,0,1,0-1.6H51.25a0.74,0.74,0,0,1,.67.8S51.92,27.73,51.92,27.74Zm-14.1,3.78a0.8,0.8,0,0,1,.8-0.8h7.2a0.86,0.86,0,0,1,.8.8s0,0,0,0a0.79,0.79,0,0,1-.8.78h-7.2A0.8,0.8,0,0,1,37.82,31.52Zm-9.3,11.7a0.85,0.85,0,0,1,1.2-1.2l0.5,0.4,1.6-1.6A0.85,0.85,0,0,1,33,42l-2.2,2.2a1.42,1.42,0,0,1-.6.2,0.73,0.73,0,0,1-.6-0.2Zm6.9,3.2v-7.6a0.79,0.79,0,0,0-.78-0.8H27a0.79,0.79,0,0,0-.8.78s0,0,0,0v7.6a0.79,0.79,0,0,0,.78.8h7.62a0.79,0.79,0,0,0,.8-0.78S35.42,46.43,35.42,46.42Zm-1.7-.8h-6v-6h6v6Zm17.4-4.2H38.62a0.8,0.8,0,0,1,0-1.6H51.14a0.79,0.79,0,0,1,.78.8A0.69,0.69,0,0,1,51.12,41.42Zm-5.3,2.2a0.8,0.8,0,0,1,0,1.6h-7.2a0.8,0.8,0,0,1,0-1.6h7.2Zm-17.3,12.5a0.85,0.85,0,0,1,1.2-1.2l0.5,0.5,1.6-1.6A0.85,0.85,0,0,1,33,55l-2.2,2.2a1.42,1.42,0,0,1-.6.2,0.73,0.73,0,0,1-.6-0.2Zm6-5.1h-7.6a0.79,0.79,0,0,0-.8.78s0,0,0,0v7.6a0.79,0.79,0,0,0,.78.8h7.62a0.79,0.79,0,0,0,.8-0.78s0,0,0,0v-7.6A0.69,0.69,0,0,0,34.52,51Zm-0.8,7.6h-6v-6h6v6Zm35.9-6.4a0.38,0.38,0,0,0-.2-0.2c-0.1-.1-0.3-0.1-0.4-0.2a0.6,0.6,0,0,0-.4.1h-0.1A0.8,0.8,0,0,0,68.21,53h0a11.32,11.32,0,0,1,1.6,5.1H59.32V47.52h0.6a0.6,0.6,0,0,1,.4.1h0.1a0.6,0.6,0,0,1,.4.1h0.1c0.1,0,.3.1,0.4,0.1h0.1c0.1,0,.3.1,0.4,0.1s0.3,0.1.4,0.1,0.3,0.1.4,0.1h0.1c0.1,0.1.3,0.1,0.4,0.2h0.1c0.1,0.1.3,0.1,0.4,0.2h0.1c0.1,0.1.3,0.1,0.4,0.2s0.3,0.1.4,0.2a0.52,0.52,0,0,0,.4.2H65a0.52,0.52,0,0,0,.4.2h0.1l0.3,0.3h0.1l0.3,0.3,0.3,0.3a0.85,0.85,0,1,0,1.27-1.13L67.72,49a14.15,14.15,0,0,0-7.4-3.5v-15a0.8,0.8,0,0,0-1.6,0h0v15.4a13,13,0,0,0-11.5,6.9h-8.4a0.79,0.79,0,0,0-.8.78s0,0,0,0a0.86,0.86,0,0,0,.8.8h7.7a7.94,7.94,0,0,0-.6,2.2h-7.1a0.8,0.8,0,1,0,0,1.6h6.9v0.7a12.88,12.88,0,0,0,3.3,8.7H20.32v-2.4a0.8,0.8,0,0,0-1.6,0v3.2a0.79,0.79,0,0,0,.78.8H50.42a13.23,13.23,0,0,0,8.1,2.8,14.07,14.07,0,0,0,5.8-1.3h0.1a7.46,7.46,0,0,0,1.2-.7,13.36,13.36,0,0,0,4.1-4.1,18.13,18.13,0,0,0,1.2-2.8,0.35,0.35,0,0,1,.1-0.2v-0.1a0.2,0.2,0,0,1,.1-0.2c0-.1.1-0.2,0.1-0.3v-0.2a0.37,0.37,0,0,1,.1-0.3v-0.1c0-.1.1-0.3,0.1-0.4a0.6,0.6,0,0,1,.1-0.4V59a16.36,16.36,0,0,0-.2-2.2A15,15,0,0,0,69.62,52.22Zm-11.1,18.3a11.47,11.47,0,0,1-.8-22.9v11.7l5.1,10.3A10.36,10.36,0,0,1,58.52,70.52ZM70,59.92a11.53,11.53,0,0,1-5.6,8.9l-4.6-9.1H70v0.2ZM76.92,0H7.52A7.56,7.56,0,0,0,0,7.52v69.3a7.56,7.56,0,0,0,7.52,7.51H76.94a7.57,7.57,0,0,0,7.5-7.42V7.52A7.55,7.55,0,0,0,76.92,0Zm0,81.5H7.52a4.72,4.72,0,0,1-4.69-4.69V7.52A4.72,4.72,0,0,1,7.52,2.83h69.4A4.72,4.72,0,0,1,81.6,7.52V76.88A4.74,4.74,0,0,1,76.91,81.51Z" transform="translate(0 0)" fill="#154263"/></svg>