<svg xmlns="http://www.w3.org/2000/svg" viewBox="0 0 84.43 84.33"><title>Icon works-02</title><path d="M33,42.7a0.62,0.62,0,0,0-.7-0.1,0.68,0.68,0,0,0-.4.6V54.4a0.65,0.65,0,0,0,.6.6H43.7a0.68,0.68,0,0,0,.6-0.4,0.88,0.88,0,0,0-.1-0.7Zm0.2,11V44.6l9.1,9.1H33.2ZM64.9,20.2L61.7,17a0.75,0.75,0,0,0-.9,0l-19,19a0.2,0.2,0,0,0-.1.2l-2.1,5.2L31.1,33l1.5-1.5a0.64,0.64,0,0,0-.9-0.9l-1.5,1.5-2.5-2.5V17a0.65,0.65,0,0,0-.6-0.6H19.8a0.65,0.65,0,0,0-.6.6V67.4a0.65,0.65,0,0,0,.6.6h7.3a0.65,0.65,0,0,0,.6-0.6V60.5h29l1.8,1.8a0.76,0.76,0,0,0,.4.2,0.52,0.52,0,0,0,.4-0.2,0.75,0.75,0,0,0,0-.9l-18.8-19,5.2-2.1a0.35,0.35,0,0,0,.2-0.1l19-19a0.76,0.76,0,0,0,.2-0.4,0.64,0.64,0,0,0-.2-0.6h0ZM26.5,66.7h-6V65.6h1.1a0.6,0.6,0,1,0,0-1.2H20.5v-2h1.1a0.6,0.6,0,1,0,0-1.2H20.5v-2h1.1a0.6,0.6,0,1,0,0-1.2H20.5V56h1.1a0.6,0.6,0,1,0,0-1.2H20.5v-2h1.1a0.6,0.6,0,1,0,0-1.2H20.5v-2h1.1a0.6,0.6,0,1,0,0-1.2H20.5v-2h1.1a0.6,0.6,0,1,0,0-1.2H20.5v-2h1.1a0.6,0.6,0,1,0,0-1.2H20.5V40h1.1a0.6,0.6,0,1,0,0-1.2H20.5v-2h1.1a0.6,0.6,0,1,0,0-1.2H20.5v-2h1.1a0.6,0.6,0,1,0,0-1.2H20.5v-2h1.1a0.6,0.6,0,0,0,0-1.2H20.5v-2h1.1a0.6,0.6,0,0,0,0-1.2H20.5V24h1.1a0.6,0.6,0,0,0,0-1.2H20.5v-2h1.1a0.6,0.6,0,0,0,0-1.2H20.5V18.5h6V66.7Zm1.2-7.5V31.4l3.1,3.1L29,36.3a0.75,0.75,0,0,0,0,.9,0.76,0.76,0,0,0,.4.2,0.52,0.52,0,0,0,.4-0.2l1.8-1.8L33,36.8l-1.8,1.8a0.75,0.75,0,0,0,0,.9,0.76,0.76,0,0,0,.4.2,0.52,0.52,0,0,0,.4-0.2l1.8-1.8,1.4,1.4-1.8,1.8a0.75,0.75,0,0,0,0,.9,0.76,0.76,0,0,0,.4.2,0.52,0.52,0,0,0,.4-0.2L36,40l1.4,1.4-1.8,1.8a0.75,0.75,0,0,0,0,.9,0.76,0.76,0,0,0,.4.2,0.52,0.52,0,0,0,.4-0.2l1.8-1.8,1.4,1.4-1.8,1.8a0.75,0.75,0,0,0,0,.9,0.76,0.76,0,0,0,.4.2,0.52,0.52,0,0,0,.4-0.2l1.8-1.8L41.8,46,40,47.8a0.75,0.75,0,0,0,0,.9,0.76,0.76,0,0,0,.4.2,0.52,0.52,0,0,0,.4-0.2l1.8-1.8L44,48.3l-1.8,1.8a0.75,0.75,0,0,0,0,.9,0.76,0.76,0,0,0,.4.2A0.52,0.52,0,0,0,43,51l1.8-1.8,1.4,1.4-1.8,1.8a0.75,0.75,0,0,0,0,.9,0.76,0.76,0,0,0,.4.2,0.52,0.52,0,0,0,.4-0.2L47,51.5l1.4,1.4-1.8,1.8a0.75,0.75,0,0,0,0,.9,0.76,0.76,0,0,0,.4.2,0.52,0.52,0,0,0,.4-0.2l1.8-1.8,1.4,1.4L49.7,57a0.75,0.75,0,0,0,0,.9,0.76,0.76,0,0,0,.4.2,0.52,0.52,0,0,0,.4-0.2l1.8-1.8,3.1,3.1H27.7Zm17-21.1L60.4,22.4l0.7,0.7L45.5,38.8Zm-0.9-.9-0.7-.7L58.8,20.8l0.8,0.8Zm-1.4.3,1.9,1.9-3.2,1.3ZM62.1,22.2l-2.4-2.4,1.5-1.5,2.4,2.4ZM61,62.9a0.64,0.64,0,1,0-.9.9l2,2a0.76,0.76,0,0,0,.4.2,0.52,0.52,0,0,0,.4-0.2,0.75,0.75,0,0,0,0-.9Zm3.5,3.4a0.64,0.64,0,0,0-.9.9h0a0.76,0.76,0,0,0,.4.2,0.72,0.72,0,0,0,.5-1.1h0ZM44.2,19.7a0.52,0.52,0,0,0,.4-0.2l0.1-.1a0.64,0.64,0,1,0-.9-0.9l-0.1.1a0.75,0.75,0,0,0,0,.9,1.69,1.69,0,0,0,.5.2h0Zm-3.5,3.5a0.52,0.52,0,0,0,.4-0.2l2-2a0.64,0.64,0,0,0-.9-0.9l-2,2a0.75,0.75,0,0,0,0,.9,1.69,1.69,0,0,0,.5.2h0Zm-3.5,3.5a0.52,0.52,0,0,0,.4-0.2l2-2a0.64,0.64,0,0,0-.9-0.9l-2,2a0.75,0.75,0,0,0,0,.9,1.69,1.69,0,0,0,.5.2h0Zm-3.5,3.5a0.52,0.52,0,0,0,.4-0.2l2-2a0.64,0.64,0,0,0-.9-0.9l-2,2a0.75,0.75,0,0,0,0,.9,1.69,1.69,0,0,0,.5.2h0ZM76.9,84.32H7.5A7.53,7.53,0,0,1,0,76.8V7.5A7.53,7.53,0,0,1,7.5,0H76.9A7.53,7.53,0,0,1,84.42,7.5V76.9A7.62,7.62,0,0,1,76.9,84.32ZM7.5,2.82A4.69,4.69,0,0,0,2.82,7.5V76.8A4.69,4.69,0,0,0,7.5,81.48H76.9a4.76,4.76,0,0,0,4.68-4.63V7.5A4.69,4.69,0,0,0,76.9,2.82H7.5Z" transform="translate(0.02 0.02)" fill="#154263"/></svg>