<svg xmlns="http://www.w3.org/2000/svg" viewBox="0 0 100 100"><defs><style>.a{fill:#154263;}</style></defs><title>002</title><path class="a" d="M96.66,78.42a1.52,1.52,0,0,0-1.51-1.51H93.31V71.74a1.52,1.52,0,0,0-1.51-1.51H88.48l0.32-.28a13.22,13.22,0,1,0-18.65-1.24,13.07,13.07,0,0,0,1.24,1.24l0.32,0.28H68.39a1.52,1.52,0,0,0-1.51,1.51v6.69a1.52,1.52,0,0,0,1.51,1.51h1.83V97h-7V93.31H65a1.52,1.52,0,0,0,1.51-1.51V85.11A1.52,1.52,0,0,0,65,83.6H63.22V71.74a1.52,1.52,0,0,0-1.51-1.51H59.87V66.56H61.7A1.52,1.52,0,0,0,63.22,65V58.36a1.52,1.52,0,0,0-1.51-1.51H59.87V53.19H61.7a1.52,1.52,0,0,0,1.51-1.51V45a1.52,1.52,0,0,0-1.51-1.51H51.51v-7h1.83A18.25,18.25,0,0,0,71.58,18.23a1.52,1.52,0,0,0-1.51-1.51H66.72A18.25,18.25,0,0,0,51.8,24.51l-0.29.41V14.73h1.83A13.23,13.23,0,0,0,66.56,1.51,1.52,1.52,0,0,0,65,0H61.7A13.22,13.22,0,0,0,50.14,6.84L50,7.09l-0.14-.25A13.22,13.22,0,0,0,38.3,0H35a1.52,1.52,0,0,0-1.51,1.51A13.23,13.23,0,0,0,46.66,14.73h1.83V24.92l-0.29-.41a18.25,18.25,0,0,0-14.92-7.79H29.94a1.52,1.52,0,0,0-1.51,1.51A18.25,18.25,0,0,0,46.66,36.47h1.83v7H38.3A1.52,1.52,0,0,0,36.78,45v5.17H35a1.52,1.52,0,0,0-1.51,1.51v6.69A1.52,1.52,0,0,0,35,59.87h1.83v3.66H35A1.52,1.52,0,0,0,33.44,65v6.69A1.52,1.52,0,0,0,35,73.25h1.83V85.11a1.52,1.52,0,0,0,1.51,1.51h1.83v3.66H38.3a1.52,1.52,0,0,0-1.51,1.51V97H33.12V91.8a1.52,1.52,0,0,0-1.51-1.51H29.78V86.62h1.83a1.52,1.52,0,0,0,1.51-1.51V78.42a1.52,1.52,0,0,0-1.51-1.51H29.78V65a1.52,1.52,0,0,0-1.51-1.51H4.86A1.52,1.52,0,0,0,3.34,65V78.42a1.52,1.52,0,0,0,1.51,1.51H6.69V83.6H4.86a1.52,1.52,0,0,0-1.51,1.51V91.8a1.52,1.52,0,0,0,1.51,1.51H6.69V97H0v3H100V97H96.66V78.42Zm-45-45.16a15.19,15.19,0,0,1,15.1-13.52h1.75l0,0.18a15.19,15.19,0,0,1-15.1,13.52H51.6Zm0-21.74A10.16,10.16,0,0,1,61.7,3h1.73l0,0.18a10.16,10.16,0,0,1-10,8.49H51.62Zm-5,.18h0a10.16,10.16,0,0,1-10-8.49l0-.18H38.3a10.16,10.16,0,0,1,10,8.49l0,0.18H46.66Zm0,21.74a15.19,15.19,0,0,1-15.1-13.52l0-.18h1.75a15.19,15.19,0,0,1,15.1,13.52l0,0.18H46.66ZM30.09,79.94V83.6H9.72V79.94H30.09ZM6.37,66.56H26.75v3.66H6.37V66.56Zm0,10.35V73.25H26.75v3.66H6.37Zm0,13.38V86.62H26.75v3.66H6.37ZM30.09,97H9.72V93.31H30.09V97ZM63.53,86.62v3.66H43.15V86.62H63.53ZM60.19,73.25v3.66H39.81V73.25H60.19Zm0-13.38v3.66H39.81V59.87H60.19ZM39.81,46.5H60.19v3.66H39.81V46.5ZM36.47,56.85V53.19H56.85v3.66H36.47Zm0,13.38V66.56H56.85v3.66H36.47ZM39.81,83.6V79.94H60.19V83.6H39.81ZM60.19,97H39.81V93.31H60.19V97ZM69.91,60A10.19,10.19,0,1,1,80.09,70.22,10.2,10.2,0,0,1,69.91,60Zm0,16.88V73.25H90.28v3.66H69.91ZM93.63,97H73.25V93.31H93.63V97Zm0-6.69H73.25V86.62H93.63v3.66Zm0-6.69H73.25V79.94H93.63V83.6Z"/><path class="a" d="M86.62,60.19h-3a3.51,3.51,0,0,1-3.34,3.34v3A6.54,6.54,0,0,0,86.62,60.19Z"/><path class="a" d="M79.94,56.53v-3a6.54,6.54,0,0,0-6.37,6.37h3A3.51,3.51,0,0,1,79.94,56.53Z"/><path class="a" d="M76.48,13.06a6.64,6.64,0,0,1,5.44,5.41,1.52,1.52,0,1,0,3,0,6.64,6.64,0,0,1,5.41-5.44,1.52,1.52,0,1,0,0-3A6.64,6.64,0,0,1,85,4.62v0a1.51,1.51,0,1,0-3,0A6.64,6.64,0,0,1,76.51,10,1.52,1.52,0,1,0,76.48,13.06ZM81,11.42a9.39,9.39,0,0,0,2.35-2.35l0.13-.19,0.13,0.19a9.36,9.36,0,0,0,2.35,2.35l0.19,0.13-0.19.13A9.36,9.36,0,0,0,83.57,14l-0.13.19L83.31,14A9.39,9.39,0,0,0,81,11.68l-0.19-.13Z"/><path class="a" d="M9.61,49.84A6.64,6.64,0,0,1,15,55.26a1.52,1.52,0,1,0,3,0,6.64,6.64,0,0,1,5.41-5.44,1.52,1.52,0,1,0,0-3,6.64,6.64,0,0,1-5.44-5.41,1.52,1.52,0,1,0-3,0,6.64,6.64,0,0,1-5.41,5.44h0A1.51,1.51,0,0,0,9.61,49.84Zm4.47-1.64a9.39,9.39,0,0,0,2.35-2.35l0.13-.19,0.13,0.19A9.36,9.36,0,0,0,19,48.2l0.19,0.13L19,48.46a9.36,9.36,0,0,0-2.35,2.35L16.56,51l-0.13-.19a9.39,9.39,0,0,0-2.35-2.35l-0.19-.13Z"/><polygon class="a" points="94.98 40.13 94.98 35.11 91.96 35.11 91.96 40.13 86.94 40.13 86.94 43.15 91.96 43.15 91.96 48.17 94.98 48.17 94.98 43.15 100 43.15 100 40.13 94.98 40.13"/><path class="a" d="M33.12,39.81v-3a6.85,6.85,0,0,1-6.69-6.84V28.42h-3v1.51A9.89,9.89,0,0,0,33.12,39.81Z"/></svg>