<svg xmlns="http://www.w3.org/2000/svg" viewBox="0 0 90.72 100"><defs><style>.a{fill:#154263;}</style></defs><title>003</title><path class="a" d="M83.9,38H79.76l5.84-8.68h0.11l1.24-1.81A4.72,4.72,0,0,0,85.7,21L56.1,0.82a4.71,4.71,0,0,0-6.54,1.24L25,38H17l1.57-15.85a0.52,0.52,0,0,1,.32-0.43,11.05,11.05,0,0,0,5.39-4.38,0.51,0.51,0,0,1,.48-0.23L36,18.25a1.45,1.45,0,0,0,.29-2.89l-11.15-1.1a3.4,3.4,0,0,0-3.22,1.56,8.13,8.13,0,0,1-4,3.22,3.4,3.4,0,0,0-2.19,2.87L14.12,38H12.27l2.56-25.95a1.8,1.8,0,0,1,2-1.62L39.34,12.7a1.45,1.45,0,1,0,.29-2.89L17.09,7.58a4.72,4.72,0,0,0-5.15,4.22L9.75,33.94h0L9.43,36.85h0L9.34,38H6.82a6.94,6.94,0,0,0-6.82,7V93a6.94,6.94,0,0,0,6.82,7H83.9a6.94,6.94,0,0,0,6.82-7V45.08A6.94,6.94,0,0,0,83.9,38ZM52,3.7a1.79,1.79,0,0,1,1.15-.76,1.82,1.82,0,0,1,.34,0,1.79,1.79,0,0,1,1,.31L84.07,23.4a1.8,1.8,0,0,1,.47,2.5L76.27,38H74l3.53-5.18a3.4,3.4,0,0,0,.16-3.61,8.13,8.13,0,0,1-1-5A3.4,3.4,0,0,0,75.28,21L59.93,10.52a3.4,3.4,0,0,0-3.58-.18,8.13,8.13,0,0,1-5,.93A3.44,3.44,0,0,0,48,12.73L30.79,38H28.56ZM64.34,38a12,12,0,0,0-23.47,0H34.31L50.44,14.37h0a0.52,0.52,0,0,1,.43-0.23h0.07a11.06,11.06,0,0,0,6.83-1.26,0.51,0.51,0,0,1,.53,0L73.64,23.38a0.51,0.51,0,0,1,.23.48,11.05,11.05,0,0,0,1.33,6.82,0.52,0.52,0,0,1,0,.54L70.52,38H64.34Zm-3,0H43.85A9.05,9.05,0,0,1,61.35,38ZM87.78,93a4,4,0,0,1-3.88,4.1H6.82A4,4,0,0,1,2.94,93V45.08A4,4,0,0,1,6.82,41H83.9a4,4,0,0,1,3.88,4.1V93Z"/><path class="a" d="M77.3,77.13L77,77V59.4a1.47,1.47,0,1,0-2.94,0V77l-0.28.09a5.95,5.95,0,0,0,0,11.37l0.28,0.09v0.92a1.47,1.47,0,1,0,2.94,0V88.58l0.28-.09A5.95,5.95,0,0,0,77.3,77.13Zm-1.65,8.69H75.48A3,3,0,1,1,75.65,85.81Z"/><path class="a" d="M75.54,55.69A1.47,1.47,0,0,0,77,54.22V48.5a1.47,1.47,0,1,0-2.94,0v5.72A1.47,1.47,0,0,0,75.54,55.69Z"/><path class="a" d="M57.17,68l-0.28-.09V48.5a1.47,1.47,0,1,0-2.94,0V67.9L53.67,68a5.95,5.95,0,0,0,0,11.37L54,79.44V89.51a1.47,1.47,0,1,0,2.94,0V79.44l0.28-.09A5.95,5.95,0,0,0,57.17,68Zm-1.75,8.69a3,3,0,1,1,3-3A3,3,0,0,1,55.42,76.67Z"/><path class="a" d="M37.1,58.73l-0.28-.09V48.5a1.47,1.47,0,1,0-2.94,0V58.65l-0.28.09a5.95,5.95,0,0,0,0,11.37l0.28,0.09V89.51a1.47,1.47,0,0,0,2.94,0V70.19l0.28-.09A5.95,5.95,0,0,0,37.1,58.73Zm-1.75,8.69a3,3,0,1,1,3-3A3,3,0,0,1,35.35,67.43Z"/><path class="a" d="M16.93,49.53l-0.28-.09v-1a1.47,1.47,0,1,0-2.94,0v1l-0.28.09a5.95,5.95,0,0,0,0,11.38L13.7,61V79.85a1.47,1.47,0,1,0,2.94,0V61l0.28-.09A5.95,5.95,0,0,0,16.93,49.53Zm-1.75,8.69a3,3,0,0,1-.1-6h0.2A3,3,0,0,1,15.18,58.23Z"/><path class="a" d="M15.18,84a1.47,1.47,0,0,0-1.47,1.47v4.05a1.47,1.47,0,1,0,2.94,0V85.45A1.47,1.47,0,0,0,15.18,84Z"/></svg>