<svg xmlns="http://www.w3.org/2000/svg" viewBox="0 0 84.43 84.33"><title>Icon works-03</title><path d="M27.3,45.1a0.55,0.55,0,0,0,.3.5,11,11,0,0,0,7.1,2.7,10.81,10.81,0,0,0,.7-21.6,1.42,1.42,0,0,0-.6.2,0.56,0.56,0,0,0-.2.6V28a9.54,9.54,0,0,0-9.4,9.5,9.38,9.38,0,0,0,2.7,6.6l-0.4.4A1.42,1.42,0,0,0,27.3,45.1Zm8.8-16.7a9.3,9.3,0,0,1-1.4,18.5,9.06,9.06,0,0,1-5.5-1.8l0.3-.3h0l6.2-6.2a1.28,1.28,0,0,0,.4-1V28.4h0Zm-9.4,9.2a8,8,0,0,1,7.9-8v7.9L29,43.1A7.81,7.81,0,0,1,26.7,37.6Zm22-4.4h9.1a0.8,0.8,0,1,0,0-1.6H48.7A0.8,0.8,0,0,0,48.7,33.2Zm0,5.5h9.1a0.8,0.8,0,1,0,0-1.6H48.7A0.8,0.8,0,0,0,48.7,38.7Zm0,5.5h9.1a0.8,0.8,0,1,0,0-1.6H48.7A0.8,0.8,0,0,0,48.7,44.2ZM67.4,19.5H46.5V17a0.79,0.79,0,0,0-.8-0.8H38.5a0.79,0.79,0,0,0-.8.8v2.5H16.9a0.79,0.79,0,0,0-.8.8v4.1a0.79,0.79,0,0,0,.8.8h2.3v3.3a0.8,0.8,0,1,0,1.6,0V25.2H63.7V43.1a0.8,0.8,0,0,0,1.6,0V25.2h2.3a0.79,0.79,0,0,0,.8-0.8V20.3A1.33,1.33,0,0,0,67.4,19.5ZM39.3,17.7H45v1.8H39.3V17.7Zm27.4,6h-49V21h49v2.7Zm0.7,26.2H65.1V46.1a0.8,0.8,0,0,0-1.6,0v3.8H20.7V31.6a0.8,0.8,0,0,0-1.6,0V50H16.8a0.79,0.79,0,0,0-.8.8v4.1a0.79,0.79,0,0,0,.8.8H32.4L26.3,67a1.1,1.1,0,0,0,0,.8,0.84,0.84,0,0,0,.7.4h4a1,1,0,0,0,.7-0.4l1.8-3.2H38A0.8,0.8,0,1,0,38,63H34.1l0.4-.6,0.6-1.1H49.3L50.2,63H41a0.8,0.8,0,0,0,0,1.6H51l1.8,3.2a0.84,0.84,0,0,0,.7.4h4a0.75,0.75,0,0,0,.7-0.4,1.1,1.1,0,0,0,0-.8L51.9,55.6H67.5a0.79,0.79,0,0,0,.8-0.8V50.7A1.06,1.06,0,0,0,67.4,49.9ZM34,60.2h0l-1.8,3.2h0l-1.8,3.2H28.2l6-11h2.2Zm1.9-.4,2.3-4.2h7.9l2.3,4.2H35.9Zm20.2,6.8H53.9l-6-11h2.2ZM66.7,54.1h-49V51.5h49v2.6ZM76.9,84.32H7.5A7.53,7.53,0,0,1,0,76.8V7.5A7.53,7.53,0,0,1,7.5,0H76.9A7.53,7.53,0,0,1,84.42,7.5V76.9A7.62,7.62,0,0,1,76.9,84.32ZM7.5,2.82A4.69,4.69,0,0,0,2.82,7.5V76.8A4.69,4.69,0,0,0,7.5,81.48H76.9a4.76,4.76,0,0,0,4.68-4.63V7.5A4.69,4.69,0,0,0,76.9,2.82H7.5Z" transform="translate(0.02 0.02)" fill="#154263"/></svg>