<svg xmlns="http://www.w3.org/2000/svg" viewBox="0 0 89.15 89"><title>004</title><path d="M87.61,79.3h-5.8V42.53a1.43,1.43,0,0,0-2.87,0V79.3H61.57V61.25a1.43,1.43,0,0,0-2.87,0V79.3H39.82V71.37a1.43,1.43,0,0,0-2.87,0V79.3H18.06V72.38a1.43,1.43,0,0,0-2.87,0V79.3H9.7V1.39a1.39,1.39,0,0,0-2.78,0V79.3H1.39a1.39,1.39,0,1,0,0,2.78H6.92v5.53a1.39,1.39,0,0,0,2.78,0V82.08H87.61A1.39,1.39,0,1,0,87.61,79.3Z" transform="translate(0)" style="fill:#154263"/><path d="M87.85,3.57a1.54,1.54,0,0,0-1.76,1.28c-4.09,25.68-17.54,44-40,54.59a89.45,89.45,0,0,1-32.88,8.2,1.54,1.54,0,0,0,0,3.07h0a90.84,90.84,0,0,0,34-8.45C63.45,54.71,83.82,38.7,89.13,5.33A1.54,1.54,0,0,0,87.85,3.57Z" transform="translate(0)" style="fill:#154263"/><path d="M24.68,8.08h1.16c-0.21.21-1.19,0.86-1.22,3.15V17a0.63,0.63,0,0,0,.62.62H28.1A0.63,0.63,0,0,0,28.72,17V16.21a98.88,98.88,0,0,0,12.58,0V17a0.65,0.65,0,0,0,.65.62H44.8A0.65,0.65,0,0,0,45.42,17c0-1.93,0-3.83,0-5.76,0-2.28-1-2.94-1.19-3.15h1.16a0.42,0.42,0,0,0,.42-0.42V7.16a0.57,0.57,0,0,0-.5-0.47l-2-.27L42,4a3.26,3.26,0,0,0-1.69-1.07,39.35,39.35,0,0,0-10.56,0A3.14,3.14,0,0,0,28.07,4L26.73,6.42l-2,.27a0.57,0.57,0,0,0-.47.47v0.5A0.41,0.41,0,0,0,24.68,8.08ZM38,13.33h-5.9A0.34,0.34,0,0,1,31.72,13a0.34,0.34,0,0,1,.36-0.36H38a0.34,0.34,0,0,1,.33.36A0.33,0.33,0,0,1,38,13.33ZM38,12h-5.9a0.36,0.36,0,0,1-.36-0.36,0.34,0.34,0,0,1,.36-0.36H38a0.34,0.34,0,0,1,.33.36A0.36,0.36,0,0,1,38,12Zm5.85-.77v2.17H40.71l0.92-2.17h2.2ZM29,4.7a1.35,1.35,0,0,1,.89-0.62,43.18,43.18,0,0,1,10.35,0,1.42,1.42,0,0,1,.89.62c0.39,0.74.74,1.48,1.13,2.26H27.8C28.18,6.18,28.57,5.44,29,4.7Zm-3.09,6.5h2.2L29,13.36H25.87V11.19Z" transform="translate(0)" style="fill:#154263"/><path d="M24.68,27.93h1.16c-0.21.21-1.19,0.86-1.22,3.15v5.76a0.63,0.63,0,0,0,.62.62H28.1a0.63,0.63,0,0,0,.62-0.62V36.06a98.88,98.88,0,0,0,12.58,0v0.77a0.65,0.65,0,0,0,.65.62H44.8a0.65,0.65,0,0,0,.62-0.62c0-1.93,0-3.83,0-5.76,0-2.28-1-2.94-1.19-3.15h1.16a0.42,0.42,0,0,0,.42-0.42V27a0.57,0.57,0,0,0-.5-0.47l-2-.27L42,23.81a3.26,3.26,0,0,0-1.69-1.07,39.35,39.35,0,0,0-10.56,0,3.14,3.14,0,0,0-1.66,1.07l-1.34,2.46-2,.27a0.57,0.57,0,0,0-.47.47v0.5A0.41,0.41,0,0,0,24.68,27.93ZM38,33.18h-5.9a0.34,0.34,0,0,1-.36-0.33,0.34,0.34,0,0,1,.36-0.36H38a0.34,0.34,0,0,1,.33.36A0.33,0.33,0,0,1,38,33.18Zm0-1.31h-5.9a0.36,0.36,0,0,1-.36-0.36,0.34,0.34,0,0,1,.36-0.36H38a0.34,0.34,0,0,1,.33.36A0.36,0.36,0,0,1,38,31.88Zm5.85-.77v2.17H40.71l0.92-2.17h2.2ZM29,24.55a1.35,1.35,0,0,1,.89-0.62,43.18,43.18,0,0,1,10.35,0,1.42,1.42,0,0,1,.89.62c0.39,0.74.74,1.48,1.13,2.25H27.8C28.18,26,28.57,25.29,29,24.55ZM25.87,31h2.2L29,33.21H25.87V31Z" transform="translate(0)" style="fill:#154263"/><path d="M49.5,8.08h1.16c-0.21.21-1.19,0.86-1.22,3.15V17a0.63,0.63,0,0,0,.62.62h2.85A0.63,0.63,0,0,0,53.53,17V16.21a98.88,98.88,0,0,0,12.58,0V17a0.65,0.65,0,0,0,.65.62h2.85A0.65,0.65,0,0,0,70.24,17c0-1.93,0-3.83,0-5.76,0-2.28-1-2.94-1.19-3.15h1.16a0.42,0.42,0,0,0,.42-0.42V7.16a0.57,0.57,0,0,0-.5-0.47l-2-.27L66.8,4A3.26,3.26,0,0,0,65.1,2.89a39.35,39.35,0,0,0-10.56,0A3.14,3.14,0,0,0,52.88,4L51.55,6.42l-2,.27a0.57,0.57,0,0,0-.47.47v0.5A0.41,0.41,0,0,0,49.5,8.08Zm13.29,5.25h-5.9A0.34,0.34,0,0,1,56.53,13a0.34,0.34,0,0,1,.36-0.36h5.9a0.34,0.34,0,0,1,.33.36A0.33,0.33,0,0,1,62.79,13.33Zm0-1.31h-5.9a0.36,0.36,0,0,1-.36-0.36,0.34,0.34,0,0,1,.36-0.36h5.9a0.34,0.34,0,0,1,.33.36A0.36,0.36,0,0,1,62.79,12Zm5.85-.77v2.17H65.52l0.92-2.17h2.2ZM53.77,4.7a1.35,1.35,0,0,1,.89-0.62A43.18,43.18,0,0,1,65,4.07a1.42,1.42,0,0,1,.89.62C66.29,5.44,66.65,6.18,67,7H52.61C53,6.18,53.38,5.44,53.77,4.7Zm-3.09,6.5h2.2l0.92,2.17H50.68V11.19Z" transform="translate(0)" style="fill:#154263"/></svg>