<svg xmlns="http://www.w3.org/2000/svg" viewBox="0 0 84.43 84.33"><title>Icon works-04</title><path d="M67.4,59.9H65.7V31.1a4.21,4.21,0,0,0-4.1-4.2H54.1a0.8,0.8,0,0,0,0,1.6h7.5a2.65,2.65,0,0,1,2.6,2.6V59.8H17a0.79,0.79,0,0,0-.8.8v1.6a5.59,5.59,0,0,0,5.6,5.6H62.6a5.59,5.59,0,0,0,5.6-5.6V60.6A0.77,0.77,0,0,0,67.4,59.9Zm-0.8,2.4a4,4,0,0,1-4,4H21.8a4,4,0,0,1-4-4V61.5H66.7l-0.1.8h0ZM19.4,57.8a0.79,0.79,0,0,0,.8-0.8V31.1a2.58,2.58,0,0,1,2.6-2.6h5.8a8,8,0,0,0,2.3,2.2H23.2a0.79,0.79,0,0,0-.8.8V57a0.79,0.79,0,0,0,.8.8H61.5a0.79,0.79,0,0,0,.8-0.8V40.8a0.79,0.79,0,0,0-.8-0.8,0.74,0.74,0,0,0-.8.8V56.2H53.5a4.43,4.43,0,0,0,1.1-3V44.4a0.75,0.75,0,0,0-.5-0.7,2.51,2.51,0,0,1,0-4.6,0.75,0.75,0,0,0,.5-0.7V36.7a2.11,2.11,0,0,0-2.1-2.1H52V32.2h8.7v4a0.79,0.79,0,0,0,.8.8,0.74,0.74,0,0,0,.8-0.8V31.4a0.79,0.79,0,0,0-.8-0.8H52V20.4a0.2,0.2,0,0,1,.1-0.2l0.7-2.1a1.39,1.39,0,0,0-.2-1.1,1.23,1.23,0,0,0-1-.5H48.5a1.23,1.23,0,0,0-1,.5,1.39,1.39,0,0,0-.2,1.1L48,20.2a0.2,0.2,0,0,0,.1.2V27H42.8a8.15,8.15,0,0,0-4.2-10.5,0.62,0.62,0,0,0-.7.1,0.84,0.84,0,0,0-.4.7v5.6a0.32,0.32,0,0,1-.3.3H33.5a0.32,0.32,0,0,1-.3-0.3V17.3a0.75,0.75,0,0,0-.4-0.7,0.88,0.88,0,0,0-.7-0.1A8.15,8.15,0,0,0,27.9,27h-5a4.14,4.14,0,0,0-4.1,4.2V57A0.64,0.64,0,0,0,19.4,57.8ZM40,52.7L39,32.3h9v2.4H47.6a2.11,2.11,0,0,0-2.1,2.1v1.7a0.75,0.75,0,0,0,.5.7,2.51,2.51,0,0,1,0,4.6,0.75,0.75,0,0,0-.5.7v8.8a4.62,4.62,0,0,0,1.1,3H38.8A5.4,5.4,0,0,0,40,52.7ZM53,36.8V38a4,4,0,0,0,0,6.8v8.3a3,3,0,0,1-2.6,3H49.5a3.11,3.11,0,0,1-2.6-3V44.8a3.9,3.9,0,0,0,1.9-3.4A3.81,3.81,0,0,0,47,38V36.8a0.65,0.65,0,0,1,.6-0.6h4.9A0.77,0.77,0,0,1,53,36.8Zm-3.5-2.1V21.1h0.9V34.7H49.5Zm1.6-16.6-0.4,1.4H49.4L49,18.1h2.1ZM42.4,28.5H48v2.2H39.6A7.56,7.56,0,0,0,42,28.4C42,28.5,42.2,28.5,42.4,28.5ZM31.5,18.6v4.3a1.9,1.9,0,0,0,1.9,1.9h3.7A1.9,1.9,0,0,0,39,22.9V18.6a6.5,6.5,0,0,1-1.1,11.3,0.79,0.79,0,0,0-.5.8l1.1,22.2a3.58,3.58,0,0,1-.9,2.4,3.14,3.14,0,0,1-4.6,0,3.41,3.41,0,0,1-.9-2.4l0.5-11.3a0.75,0.75,0,1,0-1.5-.1L30.6,52.8a4.65,4.65,0,0,0,1.3,3.5H24v-24h7.3l-0.3,6a0.75,0.75,0,1,0,1.5.1l0.3-7.7a0.75,0.75,0,0,0-.5-0.7,6.6,6.6,0,0,1-3.8-5.9A7.44,7.44,0,0,1,31.5,18.6Zm3.7,36.3a2,2,0,0,0,1.4-.6h0a1.93,1.93,0,0,0,0-2.8,1.93,1.93,0,0,0-2.8,0,1.93,1.93,0,0,0,0,2.8A2,2,0,0,0,35.2,54.9Zm-0.3-2.3a0.5,0.5,0,0,1,.6,0A0.42,0.42,0,1,1,34.9,52.6Zm13.9-7.5a0.79,0.79,0,0,0-.8.8v6.8a0.79,0.79,0,0,0,.8.8,0.74,0.74,0,0,0,.8-0.8V45.9A1,1,0,0,0,48.8,45.1Zm1.7,0.8v6.8a0.79,0.79,0,0,0,.8.8,0.74,0.74,0,0,0,.8-0.8V45.9A0.8,0.8,0,1,0,50.5,45.9ZM76.9,84.32H7.5A7.53,7.53,0,0,1,0,76.8V7.5A7.53,7.53,0,0,1,7.5,0H76.9A7.53,7.53,0,0,1,84.42,7.5V76.9A7.62,7.62,0,0,1,76.9,84.32ZM7.5,2.82A4.69,4.69,0,0,0,2.82,7.5V76.8A4.69,4.69,0,0,0,7.5,81.48H76.9a4.76,4.76,0,0,0,4.68-4.63V7.5A4.69,4.69,0,0,0,76.9,2.82H7.5Z" transform="translate(0.02 0.02)" fill="#154263"/></svg>