<svg xmlns="http://www.w3.org/2000/svg" viewBox="0 0 99.85 100"><defs><style>.a{fill:#154263;}</style></defs><title>004</title><path class="a" d="M99.44,1.79A1.58,1.58,0,0,0,98.06.41,54.39,54.39,0,0,0,52.92,15.93L39.44,29.4,20,31.91a1.59,1.59,0,0,0-.92.45L0.47,51a1.59,1.59,0,0,0,.83,2.68l14.2,2.63,3.26,3.26L12.37,63A1.59,1.59,0,0,0,12,65.51L34.33,87.84a1.59,1.59,0,0,0,2.52-.37l3.46-6.38,3.26,3.26,2.63,14.2a1.59,1.59,0,0,0,2.68.83L67.48,80.77a1.59,1.59,0,0,0,.45-0.92L70.44,60.4l0.1-.1L83.92,46.93a54.73,54.73,0,0,0,13-20.78A54.73,54.73,0,0,0,99.44,1.79ZM4.84,51.08L20.94,35l14.83-1.91-20,20Zm30.23,33L15.75,64.77l5.34-2.89L38,78.75Zm29.79-5.18-0.1.1-16,16-2-10.9,20-20ZM93.68,25.72a51.58,51.58,0,0,1-12,19L45,81.33,18.52,54.81,55.16,18.17a51.56,51.56,0,0,1,19-12L74.58,6l0.09,0.48a23.54,23.54,0,0,0,6.48,12.2,23.53,23.53,0,0,0,12.2,6.48l0.48,0.09Zm1.22-3.89-0.1.37-0.38-.06a20.35,20.35,0,0,1-11-5.69,20.34,20.34,0,0,1-5.7-11l-0.06-.38L78,5A51.2,51.2,0,0,1,96.08,3.39l0.35,0,0,0.35A51.29,51.29,0,0,1,94.89,21.83Z"/><path class="a" d="M62.11,26a11.74,11.74,0,1,0,8.31,3.44A11.67,11.67,0,0,0,62.11,26ZM68.18,43.8h0a8.59,8.59,0,1,1,2.51-6.07,8.56,8.56,0,0,1-2.51,6.07Z"/><path class="a" d="M20.3,79.92a1.59,1.59,0,0,0-2.24,0L0.84,97.14a1.59,1.59,0,0,0,0,2.24,1.62,1.62,0,0,0,2.24,0L20.3,82.16A1.59,1.59,0,0,0,20.3,79.92Z"/><path class="a" d="M23.55,85.41l-7.76,7.76a1.58,1.58,0,0,0,0,2.24,1.62,1.62,0,0,0,2.24,0l7.76-7.76A1.59,1.59,0,0,0,23.55,85.41Z"/><path class="a" d="M12.78,96.83a1.59,1.59,0,1,0,1.46,1A1.61,1.61,0,0,0,12.78,96.83Z"/><polygon class="a" points="14.08 97.42 14.42 98.23 15.18 97.88 14.85 97.07 14.08 97.42"/><path class="a" d="M7.05,81.76h0a1.59,1.59,0,1,0,.17-2,1.6,1.6,0,0,0-.17,2l-0.18.13Z"/><path class="a" d="M13.75,77.75l1.07-1.07A1.59,1.59,0,0,0,13.69,74h0a1.57,1.57,0,0,0-1.12.47L11.51,75.5a1.58,1.58,0,0,0,0,2.24A1.62,1.62,0,0,0,13.75,77.75Z"/></svg>