<svg xmlns="http://www.w3.org/2000/svg" viewBox="0 0 105.62 100"><defs><style>.a{fill:#154263;}</style></defs><title>005</title><path class="a" d="M99.21,10.43h-8.6v-9A1.5,1.5,0,0,0,89.09,0H16.53A1.5,1.5,0,0,0,15,1.48v9H6.42A6.35,6.35,0,0,0,0,16.7v77A6.35,6.35,0,0,0,6.42,100H99.21a6.35,6.35,0,0,0,6.41-6.27v-77A6.35,6.35,0,0,0,99.21,10.43ZM18.06,3H87.56V50.67H18.06V3ZM16.53,53.63H89.09a1.5,1.5,0,0,0,1.52-1.48V21.56h3.62v60H11.39v-60H15V52.15A1.5,1.5,0,0,0,16.53,53.63ZM3,16.7a3.34,3.34,0,0,1,3.37-3.31H15V18.6H9.87a1.5,1.5,0,0,0-1.52,1.48V81.55H3V16.7Zm99.53,77A3.34,3.34,0,0,1,99.21,97H6.42A3.34,3.34,0,0,1,3,93.73V84.51h99.53v9.22Zm0-12.18h-5.3V20.08a1.5,1.5,0,0,0-1.52-1.48H90.61V13.39h8.6a3.34,3.34,0,0,1,3.37,3.31V81.55Z"/><path class="a" d="M72.76,91.31a1.42,1.42,0,0,0,.14.25,1.46,1.46,0,0,0,.19.23,1.56,1.56,0,0,0,.23.19,1.62,1.62,0,0,0,.55.22,1.57,1.57,0,0,0,.89-0.09A1.61,1.61,0,0,0,75,92a1.51,1.51,0,0,0,.23-0.18,1.57,1.57,0,0,0,.19-0.23,1.4,1.4,0,0,0,.14-0.25A1.51,1.51,0,0,0,75.66,91a1.47,1.47,0,0,0,0-.57,1.41,1.41,0,0,0-.09-0.27h0a1.44,1.44,0,0,0-.14-0.25,1.55,1.55,0,0,0-.19-0.22A1.3,1.3,0,0,0,75,89.53a1.65,1.65,0,0,0-.27-0.14l-0.29-.08-0.3,0-0.3,0-0.29.09a1.5,1.5,0,0,0-.5.32,1.39,1.39,0,0,0-.18.22,1.37,1.37,0,0,0-.14.26,1.29,1.29,0,0,0-.09.27,1.45,1.45,0,0,0,0,.3,1.43,1.43,0,0,0,0,.29A1.54,1.54,0,0,0,72.76,91.31Z"/><path class="a" d="M31.46,92.23H66.23a1.48,1.48,0,1,0,0-3H31.46A1.48,1.48,0,1,0,31.46,92.23Z"/><path class="a" d="M15,74.41a1.5,1.5,0,0,0,1.52,1.48H36.21a1.5,1.5,0,0,0,1.52-1.48V59.71a1.5,1.5,0,0,0-1.52-1.48H16.53A1.5,1.5,0,0,0,15,59.71V74.41Zm3-13.23H34.69V72.93H18.06V61.19Z"/><path class="a" d="M43,75.89H62.65a1.5,1.5,0,0,0,1.52-1.48V59.71a1.5,1.5,0,0,0-1.52-1.48H43a1.5,1.5,0,0,0-1.52,1.48V74.41A1.5,1.5,0,0,0,43,75.89ZM44.5,61.19H61.13V72.93H44.5V61.19Z"/><path class="a" d="M69.41,75.89H89.09a1.5,1.5,0,0,0,1.52-1.48V59.71a1.5,1.5,0,0,0-1.52-1.48H69.41a1.5,1.5,0,0,0-1.52,1.48V74.41A1.5,1.5,0,0,0,69.41,75.89Zm1.52-14.71H87.56V72.93H70.94V61.19Z"/><path class="a" d="M33.62,32.18H24.75a1.5,1.5,0,0,0-1.52,1.48V43a1.5,1.5,0,0,0,1.52,1.48h8.87A1.5,1.5,0,0,0,35.14,43V33.66A1.5,1.5,0,0,0,33.62,32.18ZM32.1,41.5H26.27V35.14H32.1V41.5Z"/><path class="a" d="M80.88,20.44H72a1.5,1.5,0,0,0-1.52,1.48V43A1.5,1.5,0,0,0,72,44.46h8.87A1.5,1.5,0,0,0,82.4,43V21.92A1.5,1.5,0,0,0,80.88,20.44ZM79.35,41.5H73.53V23.4h5.83V41.5Z"/><path class="a" d="M49.58,24.42H40.29a1.5,1.5,0,0,0-1.52,1.48V43a1.5,1.5,0,0,0,1.52,1.48h9.29A1.5,1.5,0,0,0,51.1,43V25.9A1.5,1.5,0,0,0,49.58,24.42ZM48.06,41.5H41.81V27.38h6.25V41.5Z"/><path class="a" d="M65.12,28.92H56.25a1.5,1.5,0,0,0-1.52,1.48V43a1.5,1.5,0,0,0,1.52,1.48h8.87A1.5,1.5,0,0,0,66.65,43V30.4A1.5,1.5,0,0,0,65.12,28.92ZM63.6,41.5H57.77V31.87H63.6V41.5Z"/><path class="a" d="M59.79,24.34a1.59,1.59,0,0,0,2-.15L77.53,8.66a1.45,1.45,0,0,0,0-2.08,1.55,1.55,0,0,0-2.16,0L60.53,21.2,45.84,10.72a1.57,1.57,0,0,0-1.92.09L33.48,19.89A1.45,1.45,0,0,0,33.36,22a1.55,1.55,0,0,0,2.16.12L45,13.82Z"/><path class="a" d="M28.33,26.84h0a1.63,1.63,0,0,0,.55.22,1.8,1.8,0,0,0,.61,0L29.77,27A1.57,1.57,0,0,0,30,26.85a1.54,1.54,0,0,0,.23-0.18,1.47,1.47,0,0,0,.44-1,1.48,1.48,0,0,0,0-.29,1.39,1.39,0,0,0-.08-0.27,1.43,1.43,0,0,0-.14-0.26,1.45,1.45,0,0,0-.19-0.22A1.58,1.58,0,0,0,30,24.39a1.47,1.47,0,0,0-.26-0.14,1.52,1.52,0,0,0-.29-0.09l-0.3,0-0.3,0a1.56,1.56,0,0,0-.29.08,1.68,1.68,0,0,0-.27.14,1.6,1.6,0,0,0-.23.19,1.49,1.49,0,0,0-.32.48,1.46,1.46,0,0,0-.09.28,1.49,1.49,0,0,0,0,.28,1.47,1.47,0,0,0,.44,1A1.42,1.42,0,0,0,28.33,26.84Z"/></svg>