<svg xmlns="http://www.w3.org/2000/svg" viewBox="0 0 84.43 84.33"><title>Icon works-05</title><path d="M68.5,38.1h0l-3.3-.3a29.92,29.92,0,0,0-.8-3.2l2.7-1.9a2.21,2.21,0,0,0,.7-2.8l-1.9-3.3a2.12,2.12,0,0,0-2.8-.9l-3,1.4c-0.7-.8-1.4-1.5-2.1-2.2l1.5-3a2.11,2.11,0,0,0-.8-2.8l-3.2-2a2.1,2.1,0,0,0-2.9.6l-2,2.7a18.23,18.23,0,0,0-4-1.1L46.3,16a2.19,2.19,0,0,0-2.2-2H40.3a2.18,2.18,0,0,0-2.2,2l-0.3,3.3a29.92,29.92,0,0,0-3.2.8l-1.9-2.7a2.21,2.21,0,0,0-2.8-.7l-3.3,1.9a2.12,2.12,0,0,0-.9,2.8l1.4,3c-0.8.7-1.5,1.4-2.2,2.1l-3-1.5a2.11,2.11,0,0,0-2.8.8l-2,3.2a2.1,2.1,0,0,0,.6,2.9l2.7,2a18.23,18.23,0,0,0-1.1,4l-3.3.3a2.19,2.19,0,0,0-2,2.2v3.8a2.18,2.18,0,0,0,2,2.2l3.3,0.3a29.92,29.92,0,0,0,.8,3.2l-2.7,1.9a2.21,2.21,0,0,0-.7,2.8l1.9,3.3a2.12,2.12,0,0,0,2.8.9l3-1.4c0.7,0.8,1.4,1.5,2.1,2.2l-1.5,3a2.11,2.11,0,0,0,.8,2.8l3.2,2a2.1,2.1,0,0,0,2.9-.6l2-2.7a18.23,18.23,0,0,0,4,1.1l0.3,3.3a2.19,2.19,0,0,0,2.2,2h3.8a2.18,2.18,0,0,0,2.2-2l0.3-3.3a29.92,29.92,0,0,0,3.2-.8l1.9,2.7a2.21,2.21,0,0,0,2.8.7l3.3-1.9a2.12,2.12,0,0,0,.9-2.8l-1.4-3c0.8-.7,1.5-1.4,2.2-2.1l3,1.5a2.11,2.11,0,0,0,2.8-.8l2-3.2a2.1,2.1,0,0,0-.6-2.9l-2.7-2a18.23,18.23,0,0,0,1.1-4l3.3-.3a2.19,2.19,0,0,0,2-2.2V40.3A2.35,2.35,0,0,0,68.5,38.1Zm0.3,6a0.46,0.46,0,0,1-.4.5l-4,.4a0.85,0.85,0,0,0-.8.7,19,19,0,0,1-1.4,4.8,0.91,0.91,0,0,0,.3,1l3.2,2.4c0.2,0.2.3,0.4,0.1,0.6l-2,3.2a0.48,0.48,0,0,1-.6.2l-3.6-1.8a0.78,0.78,0,0,0-1,.2,25.43,25.43,0,0,1-2.9,2.8,0.78,0.78,0,0,0-.2,1l1.6,3.6a0.48,0.48,0,0,1-.2.6l-3.3,1.9a0.45,0.45,0,0,1-.6-0.1l-2.3-3.3a0.91,0.91,0,0,0-1-.3,19.09,19.09,0,0,1-4.1,1.1,0.85,0.85,0,0,0-.7.8l-0.4,4a0.4,0.4,0,0,1-.5.4H40.2a0.46,0.46,0,0,1-.5-0.4l-0.4-4a0.85,0.85,0,0,0-.7-0.8,19,19,0,0,1-4.8-1.4c-0.1,0-.2-0.1-0.3-0.1a0.91,0.91,0,0,0-.7.3l-2.4,3.2c-0.2.2-.4,0.3-0.6,0.1l-3.2-2a0.48,0.48,0,0,1-.2-0.6l1.8-3.6a0.78,0.78,0,0,0-.2-1,25.43,25.43,0,0,1-2.8-2.9,0.78,0.78,0,0,0-1-.2L20.6,57a0.48,0.48,0,0,1-.6-0.2l-1.9-3.3a0.35,0.35,0,0,1,.1-0.5l3.3-2.3a0.91,0.91,0,0,0,.3-1,19.09,19.09,0,0,1-1.1-4.1,0.85,0.85,0,0,0-.8-0.7l-4-.4a0.4,0.4,0,0,1-.4-0.5V40.2a0.46,0.46,0,0,1,.4-0.5l4-.4a0.85,0.85,0,0,0,.8-0.7,19,19,0,0,1,1.4-4.8,0.91,0.91,0,0,0-.3-1l-3.2-2.4c-0.2-.2-0.3-0.4-0.1-0.6l2-3.2a0.48,0.48,0,0,1,.6-0.2l3.6,1.8a0.78,0.78,0,0,0,1-.2,25.43,25.43,0,0,1,2.9-2.8,0.78,0.78,0,0,0,.2-1l-1.6-3.6a0.48,0.48,0,0,1,.2-0.6l3.3-1.9a0.45,0.45,0,0,1,.6.1l2.3,3.3a0.91,0.91,0,0,0,1,.3,19.09,19.09,0,0,1,4.1-1.1,0.85,0.85,0,0,0,.7-0.8l0.4-4a0.4,0.4,0,0,1,.5-0.4h3.8a0.46,0.46,0,0,1,.5.4l0.4,4a0.85,0.85,0,0,0,.7.8,19,19,0,0,1,4.8,1.4,0.91,0.91,0,0,0,1-.3l2.4-3.2c0.2-.2.4-0.3,0.6-0.1l3.2,2a0.48,0.48,0,0,1,.2.6l-1.8,3.6a0.78,0.78,0,0,0,.2,1,25.43,25.43,0,0,1,2.8,2.9,0.78,0.78,0,0,0,1,.2l3.6-1.6a0.48,0.48,0,0,1,.6.2l1.9,3.3a0.45,0.45,0,0,1-.1.6l-3.3,2.3a0.91,0.91,0,0,0-.3,1,19.09,19.09,0,0,1,1.1,4.1,0.85,0.85,0,0,0,.8.7l4,0.4a0.4,0.4,0,0,1,.4.5v3.8h0ZM42.3,23.7a18.42,18.42,0,0,0-8.4,34.8,0.83,0.83,0,1,0,.7-1.5,16.19,16.19,0,0,1-3.9-2.8,6.34,6.34,0,0,1,2.2-.9l3.3-.6a3.58,3.58,0,0,0,1.1-.4,7.79,7.79,0,0,0,4.9,1.6,8.44,8.44,0,0,0,4.9-1.6,3.58,3.58,0,0,0,1.1.4l3.3,0.6a5.37,5.37,0,0,1,2.3,1,16.64,16.64,0,0,1-11.4,4.5,18.41,18.41,0,0,1-3.3-.3,0.86,0.86,0,1,0-.3,1.7,22.06,22.06,0,0,0,3.7.4A18.19,18.19,0,0,0,55.7,55h0l0.1-.1A18.46,18.46,0,0,0,42.3,23.7ZM34.6,42.1v0.3H34a0.43,0.43,0,0,1-.4-0.4V38.4A0.43,0.43,0,0,1,34,38h0.6v4.1Zm0.9-6.4c-0.1,0-.2.1-0.3,0.1s-0.2.1-.3,0.1a0.1,0.1,0,0,0-.1.1c0-.4.1-0.8,0.1-1.1l0.3-1.2A15.38,15.38,0,0,0,36.4,35,3.63,3.63,0,0,1,35.5,35.7Zm0.7,1.5h0a11.66,11.66,0,0,0,1.6-1.1,12,12,0,0,0,7,2.3,10.77,10.77,0,0,0,3.1-.5v4.2a5.29,5.29,0,0,1-.9,3H42.7a0.8,0.8,0,1,0,0,1.6h2.7c-0.1,0-.1.1-0.2,0.1a5.76,5.76,0,0,1-9-4.8V37.2h0ZM49.5,38h0.6a0.43,0.43,0,0,1,.4.4V42a0.43,0.43,0,0,1-.4.4H49.5V38ZM38.6,51.2a3.06,3.06,0,0,0,.7-2V49a7.63,7.63,0,0,0,2.7.5,8,8,0,0,0,3-.6v0.3a3.72,3.72,0,0,0,.7,2,6.2,6.2,0,0,1-3.5,1A5.8,5.8,0,0,1,38.6,51.2Zm16.4,2a8.59,8.59,0,0,0-3.2-1.5l-3.3-.6a2,2,0,0,1-1.8-1.8V48a6.79,6.79,0,0,0,1.2-1.2,3.13,3.13,0,0,0,3-2.9A2,2,0,0,0,52.2,42V38.4a1.89,1.89,0,0,0-1.1-1.8,0.92,0.92,0,0,0,.3-0.9,13.4,13.4,0,0,0-3.3-6,0.85,0.85,0,1,0-1.2,1.2,10.82,10.82,0,0,1,2.8,5.2,0.2,0.2,0,0,0,.1.2H49.5a0.79,0.79,0,0,0-.8-0.5,0.48,0.48,0,0,0-.4.1h0a7.73,7.73,0,0,1-3.4.8,10.25,10.25,0,0,1-6.4-2.3l-2.2-2.3a6.73,6.73,0,0,1,1.4-1.5,7.42,7.42,0,0,1,4.8-1.8,5.9,5.9,0,0,1,2.5.7,0.83,0.83,0,1,0,.7-1.5,7.14,7.14,0,0,0-3.1-.8,9.34,9.34,0,0,0-5.9,2.2,8.18,8.18,0,0,0-2,2.5h0a9.61,9.61,0,0,0-1.1,2.8,13.55,13.55,0,0,0-.2,2,2,2,0,0,0-1.2,1.8V42a2,2,0,0,0,2,2H35a8,8,0,0,0,2.8,4.1v1.1A2,2,0,0,1,36,51l-3.3.6a8.06,8.06,0,0,0-3,1.3,16.93,16.93,0,0,1-4-10.8,16.7,16.7,0,0,1,33.4,0A17.21,17.21,0,0,1,55,53.2ZM39.4,38.5a0.7,0.7,0,1,1-.7.7A0.7,0.7,0,0,1,39.4,38.5Zm5,0a0.7,0.7,0,1,1-.7.7A0.7,0.7,0,0,1,44.4,38.5Zm-2.5,6.3A2.73,2.73,0,0,1,40,44a0.85,0.85,0,0,1,1.2-1.2,1.09,1.09,0,0,0,1.5,0A0.85,0.85,0,0,1,43.9,44,2.71,2.71,0,0,1,41.9,44.8Zm35,39.52H7.5A7.53,7.53,0,0,1,0,76.8V7.5A7.53,7.53,0,0,1,7.5,0H76.9A7.53,7.53,0,0,1,84.42,7.5V76.9A7.62,7.62,0,0,1,76.9,84.32ZM7.5,2.82A4.69,4.69,0,0,0,2.82,7.5V76.8A4.69,4.69,0,0,0,7.5,81.48H76.9a4.76,4.76,0,0,0,4.68-4.63V7.5A4.69,4.69,0,0,0,76.9,2.82H7.5Z" transform="translate(0.02 0.02)" fill="#154263"/></svg>