<svg xmlns="http://www.w3.org/2000/svg" viewBox="0 0 120.32 100"><defs><style>.a{fill:#154263;}</style></defs><title>006</title><path class="a" d="M75.3,23.25a43.83,43.83,0,0,0-5.94-.4A49.2,49.2,0,0,0,59,24,1.74,1.74,0,0,0,57.65,26a1.78,1.78,0,0,0,2.07,1.33,44,44,0,0,1,15.11-.68A1.74,1.74,0,1,0,75.3,23.25Z"/><path class="a" d="M94.2,39.82a1.78,1.78,0,0,0,2.32.81,1.74,1.74,0,0,0,.81-2.32c-0.21-.43-0.43-0.87-0.67-1.31a1.74,1.74,0,0,0-3.05,1.67C93.82,39.05,94,39.44,94.2,39.82Z"/><path class="a" d="M97.79,44.82a1.74,1.74,0,0,0-1.48,2,23.4,23.4,0,0,1-4.73,17.67,1.74,1.74,0,0,0,.31,2.44,1.78,1.78,0,0,0,2.44-.31,26.86,26.86,0,0,0,5.43-20.27A1.74,1.74,0,0,0,97.79,44.82Z"/><path class="a" d="M113.54,43.18a6.7,6.7,0,0,0-2.75.59l-0.94.42-0.17-1a33,33,0,0,0-11-19.86c-5.82-5.08-13.58-8.5-22.43-9.88l-0.94-.15,0.31-.9a9.36,9.36,0,1,0-17.69.07l0.32,0.9-0.94.15a58.27,58.27,0,0,0-12.09,3.28L44.74,17,31.51,5.5a1.74,1.74,0,0,0-2.87,1.14L26.89,24l-0.36.2A28.09,28.09,0,0,0,12.67,42.09c-1.3,4.8-2.26,5.5-5.39,5.77C3.59,48.16,1.84,49.7,1,50.94c-1.19,1.79-1.33,4.13-.42,7l3,9.17c1,3.09,2.71,4.66,5.11,4.66h3.22l0.24,0.31c6.39,8.32,12.38,10.33,20.15,12.27l0.66,0.16-0.05.67c-0.21,2.72-.58,6.21-1.14,10.66l-0.09.7H24.44a1.74,1.74,0,1,0,0,3.48H51.51a1.74,1.74,0,0,0,0-3.48h-2l2.07-7,0.69,0.11c6,0.93,12.13.5,19.87-1.39L73,88l0.2,1.73a61.43,61.43,0,0,1,.59,8.52A1.74,1.74,0,0,0,75.5,100H99a1.74,1.74,0,1,0,0-3.48H92.45l0.25-1c2.4-9.72,6.81-19,9.73-22.75A36.88,36.88,0,0,0,110.24,50a3.3,3.3,0,1,1,6.6,0,3.39,3.39,0,0,1-1,2.37,1.74,1.74,0,0,0,0,2.46,1.78,1.78,0,0,0,2.46,0A6.83,6.83,0,0,0,113.54,43.18ZM66.74,3.48a5.88,5.88,0,1,1-5.88,5.88A5.89,5.89,0,0,1,66.74,3.48ZM99.68,70.65C95.77,75.7,91.19,86.55,89,95.9l-0.14.62H77.25l0-.77c-0.09-2.27-.35-4.49-0.58-6.45-0.15-1.3-.3-2.53-0.38-3.67a1.74,1.74,0,0,0-2.2-1.55c-9.52,2.63-16.52,3.13-23.38,1.67a1.75,1.75,0,0,0-2,1.21l-2.81,9.55H35.15l0.11-.9c0.66-5.41,1.06-9.46,1.22-12.39a1.74,1.74,0,0,0-1.33-1.78c-9-2.2-14.49-3.53-21-12.47a1.74,1.74,0,0,0-1.41-.72H8.65C8.19,68.26,7.51,68,6.86,66l-3-9.18c-0.56-1.75-.56-3.12,0-4s1.84-1.39,3.66-1.55c5.36-.45,7.06-3.16,8.46-8.32A24.66,24.66,0,0,1,29.33,26.62a1.74,1.74,0,0,0,.93-1.37l1.5-14.91,11.51,10a1.75,1.75,0,0,0,1.82.29,55.84,55.84,0,0,1,15.32-4l0.33,0L61,16.75a9.33,9.33,0,0,0,11.54-.05l0.26-.21,0.33,0C89.39,18.3,106.76,28,106.76,50A33.43,33.43,0,0,1,99.68,70.65Z"/><circle class="a" cx="29.55" cy="42.36" r="1.74"/><path class="a" d="M67.15,96.52H64.78a1.74,1.74,0,0,0,0,3.48h2.37A1.74,1.74,0,0,0,67.15,96.52Z"/></svg>